<?xml version="1.0" encoding="utf-8"?>
<!-- Generator: Adobe Illustrator 25.2.0, SVG Export Plug-In . SVG Version: 6.00 Build 0)  -->
<svg version="1.1" id="Layer_1" xmlns="http://www.w3.org/2000/svg" xmlns:xlink="http://www.w3.org/1999/xlink" x="0px" y="0px"
	 viewBox="0 0 127 121.2" style="enable-background:new 0 0 127 121.2;" xml:space="preserve">
<style type="text/css">
	.st0{fill:#FFCB05;}
</style>
<path class="st0" d="M86.1,38.4l36.8,5.4c3,0.4,4.3,4.2,2.1,6.3L98.3,76c-0.9,0.9-1.3,2.1-1.1,3.3l6.2,36.7c0.5,3-2.7,5.3-5.4,3.9
	l-32.9-17.3c-1.1-0.6-2.4-0.6-3.5,0l-32.9,17.3c-2.7,1.4-5.9-0.9-5.4-3.9l6.3-36.6c0.2-1.2-0.2-2.4-1.1-3.3L2.1,50
	c-2.2-2.2-1-5.9,2.1-6.3l36.8-5.3c1.2-0.2,2.3-0.9,2.8-2L60.2,3c1.4-2.8,5.3-2.8,6.7,0l16.4,33.4C83.8,37.4,84.9,38.2,86.1,38.4z"/>
</svg>
